<svg xmlns="http://www.w3.org/2000/svg" width="1200" height="900" viewBox="0 0 1200 900" role="img" shape-rendering="geometricPrecision" aria-label="Noodle Gallery inline lockup dark, 4:3, camera without lens glare"><rect x="0" y="0" width="1200" height="900" fill="#000000" /><g transform="translate(-30.85 258.6) scale(1.1)"><g transform="translate(40.00 46.00) scale(0.31930693)">
    <path d="M 137.00 212.38 L 137.03 211.16 L 137.10 210.32 L 137.22 209.49 L 137.39 208.66 L 137.60 207.85 L 137.85 207.05 L 138.15 206.26 L 138.50 205.50 L 138.88 204.75 L 139.31 204.03 L 139.78 203.33 L 140.28 202.65 L 140.82 202.01 L 141.40 201.40 L 142.01 200.82 L 142.65 200.28 L 143.33 199.78 L 144.03 199.31 L 144.75 198.88 L 145.50 198.50 L 146.26 198.15 L 147.05 197.85 L 147.85 197.60 L 148.66 197.39 L 149.49 197.22 L 150.32 197.10 L 151.16 197.03 L 152.38 197.00 L 248.00 197.00 L 248.86 196.99 L 251.13 196.91 L 252.86 196.80 L 255.08 196.59 L 256.79 196.37 L 258.95 196.02 L 260.63 195.70 L 262.74 195.22 L 264.36 194.80 L 266.41 194.20 L 267.95 193.69 L 269.95 192.97 L 271.40 192.41 L 273.35 191.57 L 274.69 190.96 L 276.60 190.02 L 277.83 189.37 L 279.70 188.33 L 280.82 187.67 L 282.64 186.53 L 283.65 185.88 L 285.44 184.65 L 286.34 184.00 L 288.09 182.69 L 288.89 182.07 L 290.61 180.67 L 291.32 180.08 L 293.01 178.62 L 293.63 178.06 L 295.29 176.53 L 295.83 176.01 L 297.46 174.42 L 297.94 173.95 L 299.54 172.30 L 299.95 171.87 L 301.54 170.17 L 301.88 169.79 L 303.45 168.05 L 303.74 167.71 L 305.30 165.93 L 305.54 165.64 L 307.08 163.83 L 307.27 163.59 L 307.88 162.85 L 266.24 128.47 L 265.73 129.10 L 264.41 130.65 L 263.13 132.13 L 261.88 133.52 L 260.67 134.81 L 259.50 136.01 L 258.38 137.11 L 257.30 138.10 L 256.28 138.99 L 255.32 139.77 L 254.42 140.44 L 253.58 141.02 L 252.82 141.49 L 252.13 141.88 L 251.51 142.18 L 250.95 142.42 L 250.44 142.61 L 249.97 142.74 L 249.51 142.85 L 249.05 142.92 L 248.56 142.97 L 247.57 143.00 L 152.00 143.00 L 151.24 143.01 L 148.89 143.08 L 147.38 143.16 L 145.03 143.36 L 143.52 143.53 L 141.19 143.86 L 139.70 144.11 L 137.39 144.57 L 135.91 144.91 L 133.63 145.50 L 132.17 145.92 L 129.93 146.63 L 128.50 147.13 L 126.30 147.97 L 124.90 148.55 L 122.75 149.51 L 121.38 150.17 L 119.29 151.25 L 117.97 151.99 L 115.94 153.18 L 114.65 153.99 L 112.70 155.30 L 111.46 156.17 L 109.58 157.59 L 108.39 158.53 L 106.59 160.05 L 105.46 161.06 L 103.75 162.68 L 102.68 163.75 L 101.06 165.46 L 100.05 166.59 L 98.53 168.39 L 97.59 169.58 L 96.17 171.46 L 95.30 172.70 L 93.99 174.65 L 93.18 175.94 L 91.99 177.97 L 91.25 179.29 L 90.17 181.38 L 89.51 182.75 L 88.55 184.90 L 87.97 186.30 L 87.13 188.50 L 86.63 189.93 L 85.92 192.17 L 85.50 193.63 L 84.91 195.91 L 84.57 197.39 L 84.11 199.70 L 83.86 201.19 L 83.53 203.52 L 83.36 205.03 L 83.16 207.38 L 83.08 208.89 L 83.01 211.24 L 83.00 212.00 L 83.00 532.31 L 137.00 532.31 L 137.00 212.38 Z" fill="#E65B46" />
<path d="M 308.80 161.74 L 308.95 161.55 L 310.47 159.69 L 310.58 159.54 L 312.09 157.66 L 312.16 157.56 L 313.66 155.67 L 313.70 155.62 L 315.20 153.72 L 316.68 151.84 L 318.13 150.01 L 319.54 148.24 L 320.93 146.54 L 322.27 144.90 L 323.59 143.35 L 324.87 141.87 L 326.12 140.48 L 327.33 139.19 L 328.50 137.99 L 329.62 136.89 L 330.70 135.90 L 331.72 135.01 L 332.68 134.23 L 333.58 133.56 L 334.42 132.98 L 335.18 132.51 L 335.87 132.12 L 336.49 131.82 L 337.05 131.58 L 337.56 131.39 L 338.03 131.26 L 338.49 131.15 L 338.95 131.08 L 339.44 131.03 L 340.43 131.00 L 585.57 131.00 L 586.56 131.03 L 587.05 131.08 L 587.51 131.15 L 587.96 131.26 L 588.43 131.39 L 588.94 131.57 L 589.49 131.81 L 590.11 132.12 L 590.79 132.50 L 591.54 132.97 L 592.37 133.53 L 593.25 134.20 L 594.20 134.97 L 595.21 135.85 L 596.27 136.83 L 597.38 137.92 L 598.53 139.11 L 599.72 140.39 L 600.94 141.77 L 602.20 143.23 L 603.49 144.78 L 604.81 146.40 L 606.16 148.09 L 607.54 149.84 L 608.95 151.65 L 610.39 153.52 L 611.86 155.41 L 611.88 155.44 L 613.35 157.34 L 613.41 157.42 L 614.88 159.30 L 614.98 159.43 L 616.46 161.30 L 616.60 161.47 L 618.08 163.32 L 618.26 163.54 L 619.76 165.36 L 619.98 165.63 L 621.49 167.41 L 621.76 167.73 L 623.28 169.48 L 623.61 169.85 L 625.14 171.55 L 625.53 171.97 L 627.08 173.62 L 627.53 174.08 L 629.11 175.68 L 629.63 176.19 L 631.23 177.72 L 631.83 178.28 L 633.45 179.74 L 634.14 180.34 L 635.79 181.73 L 636.58 182.37 L 638.26 183.68 L 639.15 184.34 L 640.86 185.57 L 641.86 186.25 L 643.61 187.39 L 644.72 188.08 L 646.51 189.12 L 647.75 189.80 L 649.57 190.74 L 650.93 191.39 L 652.80 192.22 L 654.28 192.83 L 656.19 193.55 L 657.77 194.09 L 659.73 194.69 L 661.41 195.15 L 663.41 195.63 L 665.16 195.99 L 667.22 196.34 L 669.01 196.58 L 671.12 196.79 L 672.93 196.91 L 675.10 196.98 L 676.00 197.00 L 775.62 197.00 L 776.84 197.03 L 777.68 197.10 L 778.51 197.22 L 779.34 197.39 L 780.15 197.60 L 780.95 197.85 L 781.74 198.15 L 782.50 198.50 L 783.92 199.23 L 784.08 198.93 L 783.22 198.46 L 810.47 152.25 L 810.03 151.99 L 808.71 151.25 L 806.62 150.17 L 805.25 149.51 L 803.10 148.55 L 801.70 147.97 L 799.50 147.13 L 798.07 146.63 L 795.83 145.92 L 794.37 145.50 L 792.09 144.91 L 790.61 144.57 L 788.30 144.11 L 786.81 143.86 L 784.48 143.53 L 782.97 143.36 L 780.62 143.16 L 779.11 143.08 L 776.76 143.01 L 776.00 143.00 L 676.45 143.00 L 675.65 142.97 L 675.34 142.94 L 675.06 142.90 L 674.77 142.83 L 674.45 142.73 L 674.07 142.58 L 673.63 142.39 L 673.10 142.11 L 672.49 141.76 L 671.80 141.31 L 671.03 140.76 L 670.19 140.10 L 669.27 139.33 L 668.29 138.44 L 667.25 137.45 L 666.16 136.35 L 665.03 135.14 L 663.85 133.84 L 662.63 132.43 L 661.37 130.95 L 660.08 129.37 L 658.75 127.72 L 657.39 126.00 L 656.00 124.22 L 654.57 122.38 L 653.11 120.49 L 651.63 118.57 L 651.58 118.51 L 650.10 116.61 L 650.02 116.50 L 648.54 114.62 L 648.41 114.46 L 646.92 112.59 L 646.75 112.39 L 645.25 110.54 L 645.04 110.29 L 643.53 108.47 L 643.27 108.18 L 641.74 106.39 L 641.44 106.05 L 639.89 104.30 L 639.53 103.91 L 637.96 102.21 L 637.54 101.77 L 635.95 100.12 L 635.47 99.64 L 633.84 98.05 L 633.29 97.52 L 631.64 95.99 L 631.01 95.42 L 629.34 93.96 L 628.62 93.36 L 626.91 91.97 L 626.10 91.34 L 624.35 90.02 L 623.45 89.37 L 621.66 88.14 L 620.65 87.48 L 618.83 86.34 L 617.70 85.68 L 615.84 84.64 L 614.61 83.99 L 612.70 83.05 L 611.35 82.43 L 609.40 81.60 L 607.95 81.03 L 605.95 80.31 L 604.41 79.80 L 602.36 79.20 L 600.74 78.78 L 598.63 78.30 L 596.95 77.98 L 594.79 77.63 L 593.08 77.41 L 590.86 77.20 L 589.13 77.09 L 586.86 77.01 L 586.00 77.00 L 340.00 77.00 L 339.14 77.01 L 336.87 77.09 L 335.14 77.20 L 332.92 77.41 L 331.21 77.63 L 329.05 77.98 L 327.37 78.30 L 325.26 78.78 L 323.64 79.20 L 321.59 79.80 L 320.05 80.31 L 318.05 81.03 L 316.60 81.59 L 314.65 82.43 L 313.31 83.04 L 311.40 83.98 L 310.17 84.63 L 308.30 85.67 L 307.18 86.33 L 305.36 87.47 L 304.35 88.12 L 302.56 89.35 L 301.66 90.00 L 299.91 91.31 L 299.11 91.93 L 297.39 93.33 L 296.68 93.92 L 294.99 95.38 L 294.37 95.94 L 292.71 97.47 L 292.17 97.99 L 290.54 99.58 L 290.06 100.05 L 288.46 101.70 L 288.05 102.13 L 286.46 103.83 L 286.12 104.21 L 284.55 105.95 L 284.26 106.29 L 282.70 108.07 L 282.46 108.36 L 280.92 110.17 L 280.73 110.41 L 279.20 112.26 L 279.05 112.45 L 277.53 114.31 L 277.42 114.46 L 275.91 116.34 L 275.84 116.44 L 274.34 118.33 L 274.30 118.38 L 272.80 120.28 L 271.32 122.16 L 269.87 123.99 L 268.46 125.76 L 267.07 127.46 L 266.24 128.47 L 307.88 162.85 L 308.80 161.74 Z" fill="#A6CF52" />
<path d="M 783.97 199.31 L 784.67 199.78 L 785.35 200.28 L 785.99 200.82 L 786.60 201.40 L 787.18 202.01 L 787.72 202.65 L 788.22 203.33 L 788.69 204.03 L 789.12 204.75 L 789.50 205.50 L 789.85 206.26 L 790.15 207.05 L 790.40 207.85 L 790.61 208.66 L 790.78 209.49 L 790.90 210.32 L 790.97 211.16 L 791.00 212.38 L 791.00 509.27 L 845.00 509.27 L 845.00 212.00 L 844.99 211.24 L 844.92 208.89 L 844.84 207.38 L 844.64 205.03 L 844.47 203.52 L 844.14 201.19 L 843.89 199.70 L 843.43 197.39 L 843.09 195.91 L 842.50 193.63 L 842.08 192.17 L 841.37 189.93 L 840.87 188.50 L 840.03 186.30 L 839.45 184.90 L 838.49 182.75 L 837.83 181.38 L 836.75 179.29 L 836.01 177.97 L 834.82 175.94 L 834.01 174.65 L 832.70 172.70 L 831.83 171.46 L 830.41 169.58 L 829.47 168.39 L 827.95 166.59 L 826.94 165.46 L 825.32 163.75 L 824.25 162.68 L 822.54 161.06 L 821.41 160.05 L 819.61 158.53 L 818.42 157.59 L 816.54 156.17 L 815.30 155.30 L 813.35 153.99 L 812.06 153.18 L 810.47 152.25 L 783.04 198.76 L 783.97 199.31 Z" fill="#EBCB59" />
<path d="M 791.00 607.62 L 790.97 608.84 L 790.90 609.68 L 790.78 610.51 L 790.61 611.34 L 790.40 612.15 L 790.15 612.95 L 789.85 613.74 L 789.50 614.50 L 789.12 615.25 L 788.69 615.97 L 788.22 616.67 L 787.72 617.35 L 787.18 617.99 L 786.60 618.60 L 785.99 619.18 L 785.35 619.72 L 784.67 620.22 L 783.97 620.69 L 783.25 621.12 L 782.50 621.50 L 781.74 621.85 L 780.95 622.15 L 780.15 622.40 L 779.34 622.61 L 778.51 622.78 L 777.68 622.90 L 776.84 622.97 L 775.62 623.00 L 152.38 623.00 L 151.16 622.97 L 150.32 622.90 L 149.49 622.78 L 148.66 622.61 L 147.85 622.40 L 147.05 622.15 L 146.26 621.85 L 145.50 621.50 L 144.75 621.12 L 144.03 620.69 L 143.33 620.22 L 142.65 619.72 L 142.01 619.18 L 141.40 618.60 L 140.82 617.99 L 140.28 617.35 L 139.78 616.67 L 139.31 615.97 L 138.88 615.25 L 138.50 614.50 L 138.15 613.74 L 137.85 612.95 L 137.60 612.15 L 137.39 611.34 L 137.22 610.51 L 137.10 609.68 L 137.03 608.84 L 137.00 607.62 L 137.00 532.31 L 83.00 532.31 L 83.00 608.00 L 83.01 608.76 L 83.08 611.11 L 83.16 612.62 L 83.36 614.97 L 83.53 616.48 L 83.86 618.81 L 84.11 620.30 L 84.57 622.61 L 84.91 624.09 L 85.50 626.37 L 85.92 627.83 L 86.63 630.07 L 87.13 631.50 L 87.97 633.70 L 88.55 635.10 L 89.51 637.25 L 90.17 638.62 L 91.25 640.71 L 91.99 642.03 L 93.18 644.06 L 93.99 645.35 L 95.30 647.30 L 96.17 648.54 L 97.59 650.42 L 98.53 651.61 L 100.05 653.41 L 101.06 654.54 L 102.68 656.25 L 103.75 657.32 L 105.46 658.94 L 106.59 659.95 L 108.39 661.47 L 109.58 662.41 L 111.46 663.83 L 112.70 664.70 L 114.65 666.01 L 115.94 666.82 L 117.97 668.01 L 119.29 668.75 L 121.38 669.83 L 122.75 670.49 L 124.90 671.45 L 126.30 672.03 L 128.50 672.87 L 129.93 673.37 L 132.17 674.08 L 133.63 674.50 L 135.91 675.09 L 137.39 675.43 L 139.70 675.89 L 141.19 676.14 L 143.52 676.47 L 145.03 676.64 L 147.38 676.84 L 148.89 676.92 L 151.24 676.99 L 152.00 677.00 L 776.00 677.00 L 776.76 676.99 L 779.11 676.92 L 780.62 676.84 L 782.97 676.64 L 784.48 676.47 L 786.81 676.14 L 788.30 675.89 L 790.61 675.43 L 792.09 675.09 L 794.37 674.50 L 795.83 674.08 L 798.07 673.37 L 799.50 672.87 L 801.70 672.03 L 803.10 671.45 L 805.25 670.49 L 806.62 669.83 L 808.71 668.75 L 810.03 668.01 L 812.06 666.82 L 813.35 666.01 L 815.30 664.70 L 816.54 663.83 L 818.42 662.41 L 819.61 661.47 L 821.41 659.95 L 822.54 658.94 L 824.25 657.32 L 825.32 656.25 L 826.94 654.54 L 827.95 653.41 L 829.47 651.61 L 830.41 650.42 L 831.83 648.54 L 832.70 647.30 L 834.01 645.35 L 834.82 644.06 L 836.01 642.03 L 836.75 640.71 L 837.83 638.62 L 838.49 637.25 L 839.45 635.10 L 840.03 633.70 L 840.87 631.50 L 841.37 630.07 L 842.08 627.83 L 842.50 626.37 L 843.09 624.09 L 843.43 622.61 L 843.89 620.30 L 844.14 618.81 L 844.47 616.48 L 844.64 614.97 L 844.84 612.62 L 844.92 611.11 L 844.99 608.76 L 845.00 608.00 L 845.00 509.27 L 791.00 509.27 L 791.00 607.62 Z" fill="#5A8EF8" />
<path d="M 248.00 116.00 L 248.74 115.98 L 249.47 115.93 L 250.20 115.84 L 250.93 115.71 L 251.64 115.55 L 252.35 115.35 L 253.05 115.12 L 253.74 114.86 L 254.41 114.56 L 255.07 114.23 L 255.71 113.87 L 256.33 113.47 L 256.94 113.05 L 257.52 112.60 L 258.07 112.11 L 258.61 111.61 L 259.11 111.07 L 259.60 110.52 L 260.05 109.94 L 260.47 109.33 L 260.87 108.71 L 261.23 108.07 L 261.56 107.41 L 261.86 106.74 L 262.12 106.05 L 262.35 105.35 L 262.55 104.64 L 262.71 103.93 L 262.84 103.20 L 262.93 102.47 L 262.98 101.74 L 263.00 101.00 L 262.98 100.26 L 262.93 99.53 L 262.84 98.80 L 262.71 98.07 L 262.55 97.36 L 262.35 96.65 L 262.12 95.95 L 261.86 95.26 L 261.56 94.59 L 261.23 93.93 L 260.87 93.29 L 260.47 92.67 L 260.05 92.06 L 259.60 91.48 L 259.11 90.93 L 258.61 90.39 L 258.07 89.89 L 257.52 89.40 L 256.94 88.95 L 256.33 88.53 L 255.71 88.13 L 255.07 87.77 L 254.41 87.44 L 253.74 87.14 L 253.05 86.88 L 252.35 86.65 L 251.64 86.45 L 250.93 86.29 L 250.20 86.16 L 249.47 86.07 L 248.74 86.02 L 248.00 86.00 L 160.00 86.00 L 159.26 86.02 L 158.53 86.07 L 157.80 86.16 L 157.07 86.29 L 156.36 86.45 L 155.65 86.65 L 154.95 86.88 L 154.26 87.14 L 153.59 87.44 L 152.93 87.77 L 152.29 88.13 L 151.67 88.53 L 151.06 88.95 L 150.48 89.40 L 149.93 89.89 L 149.39 90.39 L 148.89 90.93 L 148.40 91.48 L 147.95 92.06 L 147.53 92.67 L 147.13 93.29 L 146.77 93.93 L 146.44 94.59 L 146.14 95.26 L 145.88 95.95 L 145.65 96.65 L 145.45 97.36 L 145.29 98.07 L 145.16 98.80 L 145.07 99.53 L 145.02 100.26 L 145.00 101.00 L 145.02 101.74 L 145.07 102.47 L 145.16 103.20 L 145.29 103.93 L 145.45 104.64 L 145.65 105.35 L 145.88 106.05 L 146.14 106.74 L 146.44 107.41 L 146.77 108.07 L 147.13 108.71 L 147.53 109.33 L 147.95 109.94 L 148.40 110.52 L 148.89 111.07 L 149.39 111.61 L 149.93 112.11 L 150.48 112.60 L 151.06 113.05 L 151.67 113.47 L 152.29 113.87 L 152.93 114.23 L 153.59 114.56 L 154.26 114.86 L 154.95 115.12 L 155.65 115.35 L 156.36 115.55 L 157.07 115.71 L 157.80 115.84 L 158.53 115.93 L 159.26 115.98 L 160.00 116.00 L 248.00 116.00 Z" fill="#E65B46" />
<path d="M 358.20 503.33 L 357.47 502.45 L 356.76 501.56 L 356.05 500.67 L 355.35 499.77 L 354.66 498.87 L 353.97 497.96 L 353.29 497.05 L 352.62 496.13 L 351.95 495.20 L 351.30 494.27 L 350.65 493.34 L 350.00 492.40 L 349.37 491.45 L 348.74 490.50 L 348.12 489.55 L 347.50 488.59 L 346.90 487.62 L 346.30 486.65 L 345.71 485.68 L 345.13 484.70 L 344.55 483.72 L 343.99 482.73 L 343.43 481.74 L 342.87 480.74 L 342.33 479.74 L 341.79 478.74 L 341.27 477.73 L 340.75 476.72 L 340.23 475.70 L 339.73 474.68 L 339.23 473.65 L 338.75 472.62 L 338.27 471.59 L 337.79 470.55 L 337.33 469.51 L 336.88 468.47 L 336.43 467.42 L 335.99 466.37 L 335.56 465.32 L 335.14 464.26 L 334.72 463.20 L 334.32 462.14 L 333.92 461.07 L 333.53 460.00 L 333.15 458.92 L 332.78 457.85 L 332.41 456.77 L 332.06 455.69 L 331.71 454.60 L 331.37 453.51 L 331.04 452.42 L 330.72 451.33 L 330.41 450.24 L 330.11 449.14 L 329.81 448.04 L 329.52 446.94 L 329.25 445.83 L 328.98 444.73 L 328.72 443.62 L 328.46 442.51 L 328.22 441.39 L 327.99 440.28 L 327.76 439.16 L 327.54 438.05 L 327.34 436.93 L 327.14 435.81 L 326.95 434.68 L 326.77 433.56 L 326.59 432.43 L 326.43 431.31 L 326.27 430.18 L 326.13 429.05 L 325.99 427.92 L 325.86 426.79 L 325.74 425.65 L 325.63 424.52 L 325.53 423.39 L 325.44 422.25 L 325.35 421.11 L 325.28 419.98 L 325.21 418.84 L 325.16 417.70 L 325.11 416.57 L 325.07 415.43 L 325.04 414.29 L 325.02 413.15 L 325.00 412.01 L 325.00 410.87 L 325.01 409.73 L 325.02 408.60 L 325.04 407.46 L 325.08 406.32 L 325.12 405.18 L 325.17 404.04 L 325.23 402.91 L 325.29 401.77 L 325.37 400.63 L 325.46 399.50 L 325.55 398.36 L 325.66 397.23 L 325.77 396.10 L 325.89 394.96 L 326.02 393.83 L 326.16 392.70 L 326.31 391.57 L 326.46 390.44 L 326.63 389.32 L 326.81 388.19 L 326.99 387.07 L 327.18 385.95 L 327.38 384.82 L 327.59 383.71 L 327.81 382.59 L 328.04 381.47 L 328.27 380.36 L 328.52 379.25 L 328.77 378.14 L 329.04 377.03 L 329.31 375.92 L 329.59 374.82 L 329.88 373.72 L 330.17 372.62 L 330.48 371.52 L 330.79 370.42 L 331.12 369.33 L 331.45 368.24 L 331.79 367.16 L 332.14 366.07 L 332.49 364.99 L 332.86 363.91 L 333.23 362.84 L 333.62 361.76 L 334.01 360.69 L 334.41 359.63 L 334.81 358.56 L 335.23 357.50 L 335.65 356.45 L 336.09 355.39 L 336.53 354.34 L 336.98 353.30 L 337.43 352.25 L 337.90 351.22 L 338.37 350.18 L 338.85 349.15 L 339.34 348.12 L 339.84 347.10 L 340.35 346.08 L 340.86 345.06 L 341.38 344.05 L 341.91 343.04 L 342.45 342.03 L 343.00 341.03 L 343.55 340.04 L 344.11 339.05 L 344.68 338.06 L 345.26 337.08 L 345.84 336.10 L 346.43 335.13 L 347.03 334.16 L 347.64 333.20 L 348.26 332.24 L 348.88 331.29 L 349.51 330.34 L 350.14 329.39 L 350.79 328.45 L 351.44 327.52 L 352.10 326.59 L 352.77 325.67 L 353.44 324.75 L 354.12 323.84 L 354.81 322.93 L 355.51 322.03 L 356.21 321.13 L 356.92 320.24 L 357.63 319.36 L 358.36 318.48 L 359.09 317.60 L 359.82 316.73 L 360.57 315.87 L 361.32 315.02 L 362.07 314.16 L 362.84 313.32 L 363.61 312.48 L 364.39 311.65 L 365.17 310.82 L 365.96 310.00 L 366.76 309.19 L 367.56 308.38 L 368.37 307.58 L 369.18 306.78 L 370.01 306.00 L 370.83 305.21 L 371.67 304.44 L 372.51 303.67 L 373.35 302.91 L 374.20 302.15 L 375.06 301.40 L 375.93 300.66 L 376.80 299.92 L 377.67 299.20 L 378.55 298.47 L 379.44 297.76 L 380.33 297.05 L 381.23 296.35 L 382.13 295.66 L 383.04 294.97 L 383.95 294.29 L 384.87 293.62 L 385.80 292.95 L 386.73 292.30 L 387.66 291.65 L 388.60 291.00 L 389.55 290.37 L 390.50 289.74 L 391.45 289.12 L 392.41 288.50 L 393.38 287.90 L 394.35 287.30 L 395.32 286.71 L 396.30 286.13 L 397.28 285.55 L 398.27 284.99 L 399.34 284.38 L 399.20 284.13 L 398.20 284.67 L 377.75 243.78 L 376.74 244.32 L 375.59 244.96 L 375.43 245.05 L 374.29 245.71 L 374.13 245.80 L 372.99 246.47 L 372.84 246.56 L 371.71 247.23 L 371.55 247.33 L 370.42 248.01 L 370.27 248.11 L 369.15 248.80 L 368.99 248.89 L 367.87 249.60 L 367.72 249.69 L 366.61 250.40 L 366.46 250.50 L 365.35 251.22 L 365.20 251.32 L 364.10 252.05 L 363.95 252.15 L 362.85 252.88 L 362.71 252.98 L 361.62 253.73 L 361.47 253.83 L 360.38 254.59 L 360.24 254.69 L 359.16 255.45 L 359.01 255.56 L 357.94 256.33 L 357.79 256.43 L 356.73 257.21 L 356.58 257.32 L 355.53 258.11 L 355.38 258.21 L 354.33 259.01 L 354.18 259.12 L 353.14 259.92 L 353.00 260.03 L 351.96 260.85 L 351.81 260.96 L 350.78 261.78 L 350.64 261.89 L 349.61 262.72 L 349.47 262.83 L 348.45 263.67 L 348.31 263.78 L 347.30 264.63 L 347.16 264.74 L 346.15 265.60 L 346.01 265.71 L 345.01 266.57 L 344.88 266.69 L 343.88 267.56 L 343.75 267.68 L 342.76 268.55 L 342.63 268.67 L 341.64 269.56 L 341.51 269.68 L 340.54 270.57 L 340.41 270.69 L 339.44 271.59 L 339.31 271.71 L 338.35 272.62 L 338.22 272.75 L 337.27 273.66 L 337.14 273.78 L 336.19 274.71 L 336.06 274.83 L 335.12 275.76 L 335.00 275.89 L 334.07 276.82 L 333.94 276.95 L 333.02 277.90 L 332.89 278.03 L 331.98 278.98 L 331.85 279.11 L 330.94 280.06 L 330.82 280.20 L 329.92 281.16 L 329.80 281.29 L 328.90 282.26 L 328.78 282.40 L 327.90 283.38 L 327.78 283.51 L 326.90 284.50 L 326.78 284.63 L 325.91 285.62 L 325.79 285.76 L 324.93 286.76 L 324.81 286.90 L 323.96 287.90 L 323.84 288.04 L 323.00 289.05 L 322.88 289.19 L 322.04 290.21 L 321.93 290.35 L 321.10 291.38 L 320.99 291.52 L 320.16 292.55 L 320.05 292.69 L 319.24 293.73 L 319.13 293.87 L 318.32 294.92 L 318.21 295.06 L 317.41 296.11 L 317.31 296.26 L 316.52 297.32 L 316.41 297.46 L 315.63 298.53 L 315.52 298.67 L 314.75 299.74 L 314.65 299.89 L 313.88 300.96 L 313.78 301.11 L 313.02 302.19 L 312.92 302.34 L 312.17 303.43 L 312.07 303.58 L 311.33 304.67 L 311.23 304.82 L 310.50 305.92 L 310.40 306.07 L 309.68 307.18 L 309.58 307.33 L 308.87 308.44 L 308.77 308.59 L 308.07 309.71 L 307.98 309.86 L 307.28 310.98 L 307.19 311.14 L 306.50 312.26 L 306.41 312.42 L 305.73 313.55 L 305.64 313.71 L 304.97 314.85 L 304.88 315.00 L 304.22 316.14 L 304.13 316.30 L 303.48 317.45 L 303.39 317.61 L 302.75 318.76 L 302.66 318.92 L 302.03 320.08 L 301.94 320.24 L 301.32 321.40 L 301.24 321.56 L 300.62 322.73 L 300.54 322.89 L 299.93 324.06 L 299.85 324.22 L 299.26 325.40 L 299.18 325.56 L 298.59 326.74 L 298.51 326.90 L 297.93 328.09 L 297.86 328.25 L 297.29 329.44 L 297.21 329.61 L 296.65 330.80 L 296.58 330.97 L 296.03 332.17 L 295.95 332.33 L 295.41 333.54 L 295.34 333.70 L 294.81 334.91 L 294.74 335.07 L 294.22 336.29 L 294.15 336.45 L 293.64 337.67 L 293.57 337.84 L 293.07 339.06 L 293.00 339.22 L 292.51 340.45 L 292.44 340.62 L 291.96 341.85 L 291.89 342.01 L 291.42 343.25 L 291.36 343.41 L 290.89 344.65 L 290.83 344.82 L 290.38 346.06 L 290.32 346.23 L 289.87 347.47 L 289.81 347.64 L 289.38 348.89 L 289.32 349.06 L 288.90 350.31 L 288.84 350.48 L 288.43 351.73 L 288.37 351.91 L 287.97 353.16 L 287.91 353.33 L 287.52 354.59 L 287.47 354.77 L 287.08 356.03 L 287.03 356.20 L 286.66 357.47 L 286.61 357.64 L 286.24 358.91 L 286.19 359.08 L 285.84 360.35 L 285.79 360.53 L 285.45 361.80 L 285.40 361.97 L 285.06 363.25 L 285.02 363.43 L 284.70 364.71 L 284.65 364.88 L 284.34 366.16 L 284.30 366.34 L 283.99 367.62 L 283.95 367.80 L 283.66 369.08 L 283.62 369.26 L 283.33 370.55 L 283.29 370.73 L 283.02 372.02 L 282.98 372.19 L 282.72 373.49 L 282.69 373.66 L 282.43 374.96 L 282.40 375.14 L 282.15 376.43 L 282.12 376.61 L 281.89 377.91 L 281.86 378.09 L 281.63 379.39 L 281.60 379.57 L 281.39 380.87 L 281.36 381.05 L 281.16 382.35 L 281.13 382.53 L 280.94 383.83 L 280.92 384.01 L 280.73 385.32 L 280.71 385.50 L 280.54 386.81 L 280.52 386.99 L 280.35 388.30 L 280.33 388.47 L 280.18 389.79 L 280.16 389.96 L 280.02 391.28 L 280.00 391.46 L 279.87 392.77 L 279.86 392.95 L 279.73 394.26 L 279.72 394.44 L 279.61 395.76 L 279.59 395.94 L 279.50 397.25 L 279.48 397.43 L 279.39 398.75 L 279.38 398.93 L 279.30 400.25 L 279.29 400.43 L 279.22 401.75 L 279.22 401.93 L 279.16 403.24 L 279.15 403.43 L 279.10 404.74 L 279.10 404.92 L 279.06 406.24 L 279.05 406.42 L 279.03 407.74 L 279.02 407.92 L 279.01 409.24 L 279.01 409.42 L 279.00 410.74 L 279.00 410.92 L 279.00 412.24 L 279.01 412.42 L 279.02 413.74 L 279.02 413.92 L 279.05 415.24 L 279.05 415.42 L 279.09 416.74 L 279.09 416.92 L 279.14 418.24 L 279.14 418.42 L 279.20 419.74 L 279.21 419.92 L 279.27 421.24 L 279.28 421.42 L 279.36 422.74 L 279.37 422.92 L 279.46 424.23 L 279.47 424.41 L 279.57 425.73 L 279.58 425.91 L 279.69 427.22 L 279.71 427.40 L 279.82 428.72 L 279.84 428.90 L 279.97 430.21 L 279.99 430.39 L 280.13 431.70 L 280.15 431.88 L 280.29 433.19 L 280.32 433.37 L 280.47 434.68 L 280.50 434.86 L 280.67 436.17 L 280.69 436.35 L 280.87 437.66 L 280.89 437.84 L 281.08 439.14 L 281.11 439.32 L 281.31 440.63 L 281.34 440.80 L 281.55 442.11 L 281.58 442.28 L 281.80 443.59 L 281.83 443.76 L 282.06 445.06 L 282.09 445.24 L 282.34 446.54 L 282.37 446.71 L 282.62 448.01 L 282.66 448.19 L 282.92 449.48 L 282.95 449.66 L 283.22 450.95 L 283.26 451.13 L 283.54 452.41 L 283.58 452.59 L 283.88 453.88 L 283.92 454.05 L 284.22 455.34 L 284.26 455.51 L 284.57 456.80 L 284.62 456.97 L 284.94 458.25 L 284.98 458.43 L 285.31 459.70 L 285.36 459.88 L 285.70 461.15 L 285.75 461.33 L 286.10 462.60 L 286.15 462.77 L 286.51 464.04 L 286.56 464.21 L 286.93 465.48 L 286.99 465.65 L 287.37 466.92 L 287.42 467.09 L 287.81 468.35 L 287.87 468.52 L 288.27 469.78 L 288.32 469.95 L 288.74 471.20 L 288.79 471.37 L 289.21 472.62 L 289.27 472.80 L 289.70 474.04 L 289.76 474.21 L 290.21 475.46 L 290.27 475.63 L 290.72 476.87 L 290.78 477.04 L 291.24 478.27 L 291.30 478.44 L 291.77 479.68 L 291.84 479.84 L 292.32 481.07 L 292.38 481.24 L 292.87 482.47 L 292.94 482.63 L 293.44 483.85 L 293.51 484.02 L 294.02 485.24 L 294.09 485.41 L 294.61 486.62 L 294.68 486.79 L 295.21 487.99 L 295.28 488.16 L 295.82 489.36 L 295.89 489.53 L 296.44 490.73 L 296.51 490.89 L 297.07 492.09 L 297.15 492.25 L 297.71 493.45 L 297.79 493.61 L 298.36 494.80 L 298.44 494.96 L 299.03 496.14 L 299.11 496.30 L 299.70 497.48 L 299.78 497.64 L 300.39 498.82 L 300.47 498.98 L 301.08 500.15 L 301.17 500.31 L 301.79 501.47 L 301.87 501.63 L 302.50 502.79 L 302.59 502.95 L 303.23 504.10 L 303.32 504.26 L 303.96 505.41 L 304.05 505.57 L 304.71 506.71 L 304.80 506.87 L 305.47 508.01 L 305.56 508.16 L 306.23 509.29 L 306.33 509.45 L 307.01 510.58 L 307.11 510.73 L 307.80 511.85 L 307.89 512.01 L 308.60 513.13 L 308.69 513.28 L 309.40 514.39 L 309.50 514.54 L 310.22 515.65 L 310.32 515.80 L 311.05 516.90 L 311.15 517.05 L 311.88 518.15 L 311.98 518.29 L 312.73 519.38 L 312.83 519.53 L 313.59 520.62 L 313.69 520.76 L 314.45 521.84 L 314.56 521.99 L 315.33 523.06 L 315.43 523.21 L 316.21 524.27 L 316.32 524.42 L 317.11 525.47 L 317.21 525.62 L 318.01 526.67 L 318.12 526.82 L 318.92 527.86 L 319.03 528.00 L 319.85 529.04 L 319.96 529.19 L 320.78 530.22 L 320.89 530.36 L 321.72 531.39 L 321.83 531.53 L 322.67 532.55 L 322.78 532.69 L 323.63 533.70 L 358.98 504.27 L 358.20 503.33 Z" fill="#E65B46" />
<path d="M 400.26 283.87 L 401.26 283.33 L 402.26 282.79 L 403.27 282.27 L 404.28 281.75 L 405.30 281.23 L 406.32 280.73 L 407.35 280.23 L 408.38 279.75 L 409.41 279.27 L 410.45 278.79 L 411.49 278.33 L 412.53 277.88 L 413.58 277.43 L 414.63 276.99 L 415.68 276.56 L 416.74 276.14 L 417.80 275.72 L 418.86 275.32 L 419.93 274.92 L 421.00 274.53 L 422.08 274.15 L 423.15 273.78 L 424.23 273.41 L 425.31 273.06 L 426.40 272.71 L 427.49 272.37 L 428.58 272.04 L 429.67 271.72 L 430.76 271.41 L 431.86 271.11 L 432.96 270.81 L 434.06 270.52 L 435.17 270.25 L 436.27 269.98 L 437.38 269.72 L 438.49 269.46 L 439.61 269.22 L 440.72 268.99 L 441.84 268.76 L 442.95 268.54 L 444.07 268.34 L 445.19 268.14 L 446.32 267.95 L 447.44 267.77 L 448.57 267.59 L 449.69 267.43 L 450.82 267.27 L 451.95 267.13 L 453.08 266.99 L 454.21 266.86 L 455.35 266.74 L 456.48 266.63 L 457.61 266.53 L 458.75 266.44 L 459.89 266.35 L 461.02 266.28 L 462.16 266.21 L 463.30 266.16 L 464.43 266.11 L 465.57 266.07 L 466.71 266.04 L 467.85 266.02 L 468.99 266.00 L 470.13 266.00 L 471.27 266.01 L 472.40 266.02 L 473.54 266.04 L 474.68 266.08 L 475.82 266.12 L 476.96 266.17 L 478.09 266.23 L 479.23 266.29 L 480.37 266.37 L 481.50 266.46 L 482.64 266.55 L 483.77 266.66 L 484.90 266.77 L 486.04 266.89 L 487.17 267.02 L 488.30 267.16 L 489.43 267.31 L 490.56 267.46 L 491.68 267.63 L 492.81 267.81 L 493.93 267.99 L 495.05 268.18 L 496.18 268.38 L 497.29 268.59 L 498.41 268.81 L 499.53 269.04 L 500.64 269.27 L 501.75 269.52 L 502.86 269.77 L 503.97 270.04 L 505.08 270.31 L 506.18 270.59 L 507.28 270.88 L 508.38 271.17 L 509.48 271.48 L 510.58 271.79 L 511.67 272.12 L 512.76 272.45 L 513.84 272.79 L 514.93 273.14 L 516.01 273.49 L 517.09 273.86 L 518.16 274.23 L 519.24 274.62 L 520.31 275.01 L 521.37 275.41 L 522.44 275.81 L 523.50 276.23 L 524.55 276.65 L 525.61 277.09 L 526.66 277.53 L 527.70 277.98 L 528.75 278.43 L 529.78 278.90 L 530.82 279.37 L 531.85 279.85 L 532.88 280.34 L 533.90 280.84 L 534.92 281.35 L 535.94 281.86 L 536.95 282.38 L 537.96 282.91 L 538.97 283.45 L 539.97 284.00 L 540.96 284.55 L 541.95 285.11 L 542.94 285.68 L 543.92 286.26 L 544.90 286.84 L 545.87 287.43 L 546.84 288.03 L 547.80 288.64 L 548.76 289.26 L 549.71 289.88 L 550.66 290.51 L 551.61 291.14 L 552.55 291.79 L 553.48 292.44 L 554.48 293.15 L 555.04 293.54 L 580.40 255.50 L 580.95 255.88 L 581.11 255.65 L 580.04 254.88 L 579.89 254.78 L 578.81 254.02 L 578.66 253.92 L 577.57 253.17 L 577.42 253.07 L 576.33 252.33 L 576.18 252.23 L 575.08 251.50 L 574.93 251.40 L 573.82 250.68 L 573.67 250.58 L 572.56 249.87 L 572.41 249.77 L 571.29 249.07 L 571.14 248.98 L 570.02 248.28 L 569.86 248.19 L 568.74 247.50 L 568.58 247.41 L 567.45 246.73 L 567.29 246.64 L 566.15 245.97 L 566.00 245.88 L 564.86 245.22 L 564.70 245.13 L 563.55 244.48 L 563.39 244.39 L 562.24 243.75 L 562.08 243.66 L 560.92 243.03 L 560.76 242.94 L 559.60 242.32 L 559.44 242.24 L 558.27 241.62 L 558.11 241.54 L 556.94 240.93 L 556.78 240.85 L 555.60 240.26 L 555.44 240.18 L 554.26 239.59 L 554.10 239.51 L 552.91 238.93 L 552.75 238.86 L 551.56 238.29 L 551.39 238.21 L 550.20 237.65 L 550.03 237.58 L 548.83 237.03 L 548.67 236.95 L 547.46 236.41 L 547.30 236.34 L 546.09 235.81 L 545.93 235.74 L 544.71 235.22 L 544.55 235.15 L 543.33 234.64 L 543.16 234.57 L 541.94 234.07 L 541.78 234.00 L 540.55 233.51 L 540.38 233.44 L 539.15 232.96 L 538.99 232.89 L 537.75 232.42 L 537.59 232.36 L 536.35 231.89 L 536.18 231.83 L 534.94 231.38 L 534.77 231.32 L 533.53 230.87 L 533.36 230.81 L 532.11 230.38 L 531.94 230.32 L 530.69 229.90 L 530.52 229.84 L 529.27 229.43 L 529.09 229.37 L 527.84 228.97 L 527.67 228.91 L 526.41 228.52 L 526.23 228.47 L 524.97 228.08 L 524.80 228.03 L 523.53 227.66 L 523.36 227.61 L 522.09 227.24 L 521.92 227.19 L 520.65 226.84 L 520.47 226.79 L 519.20 226.45 L 519.03 226.40 L 517.75 226.06 L 517.57 226.02 L 516.29 225.70 L 516.12 225.65 L 514.84 225.34 L 514.66 225.30 L 513.38 224.99 L 513.20 224.95 L 511.92 224.66 L 511.74 224.62 L 510.45 224.33 L 510.27 224.29 L 508.98 224.02 L 508.81 223.98 L 507.51 223.72 L 507.34 223.69 L 506.04 223.43 L 505.86 223.40 L 504.57 223.15 L 504.39 223.12 L 503.09 222.89 L 502.91 222.86 L 501.61 222.63 L 501.43 222.60 L 500.13 222.39 L 499.95 222.36 L 498.65 222.16 L 498.47 222.13 L 497.17 221.94 L 496.99 221.92 L 495.68 221.73 L 495.50 221.71 L 494.19 221.54 L 494.01 221.52 L 492.70 221.35 L 492.53 221.33 L 491.21 221.18 L 491.04 221.16 L 489.72 221.02 L 489.54 221.00 L 488.23 220.87 L 488.05 220.86 L 486.74 220.73 L 486.56 220.72 L 485.24 220.61 L 485.06 220.59 L 483.75 220.50 L 483.57 220.48 L 482.25 220.39 L 482.07 220.38 L 480.75 220.30 L 480.57 220.29 L 479.25 220.22 L 479.07 220.22 L 477.76 220.16 L 477.57 220.15 L 476.26 220.10 L 476.08 220.10 L 474.76 220.06 L 474.58 220.05 L 473.26 220.03 L 473.08 220.02 L 471.76 220.01 L 471.58 220.01 L 470.26 220.00 L 470.08 220.00 L 468.76 220.00 L 468.58 220.01 L 467.26 220.02 L 467.08 220.02 L 465.76 220.05 L 465.58 220.05 L 464.26 220.09 L 464.08 220.09 L 462.76 220.14 L 462.58 220.14 L 461.26 220.20 L 461.08 220.21 L 459.76 220.27 L 459.58 220.28 L 458.26 220.36 L 458.08 220.37 L 456.77 220.46 L 456.59 220.47 L 455.27 220.57 L 455.09 220.58 L 453.78 220.69 L 453.60 220.71 L 452.28 220.82 L 452.10 220.84 L 450.79 220.97 L 450.61 220.99 L 449.30 221.13 L 449.12 221.15 L 447.81 221.29 L 447.63 221.32 L 446.32 221.47 L 446.14 221.50 L 444.83 221.67 L 444.65 221.69 L 443.34 221.87 L 443.16 221.89 L 441.86 222.08 L 441.68 222.11 L 440.37 222.31 L 440.20 222.34 L 438.89 222.55 L 438.72 222.58 L 437.41 222.80 L 437.24 222.83 L 435.94 223.06 L 435.76 223.09 L 434.46 223.34 L 434.29 223.37 L 432.99 223.62 L 432.81 223.66 L 431.52 223.92 L 431.34 223.95 L 430.05 224.22 L 429.87 224.26 L 428.59 224.54 L 428.41 224.58 L 427.12 224.88 L 426.95 224.92 L 425.66 225.22 L 425.49 225.26 L 424.20 225.57 L 424.03 225.62 L 422.75 225.94 L 422.57 225.98 L 421.30 226.31 L 421.12 226.36 L 419.85 226.70 L 419.67 226.75 L 418.40 227.10 L 418.23 227.15 L 416.96 227.51 L 416.79 227.56 L 415.52 227.93 L 415.35 227.99 L 414.08 228.37 L 413.91 228.42 L 412.65 228.81 L 412.48 228.87 L 411.22 229.27 L 411.05 229.32 L 409.80 229.74 L 409.63 229.79 L 408.38 230.21 L 408.20 230.27 L 406.96 230.70 L 406.79 230.76 L 405.54 231.21 L 405.37 231.27 L 404.13 231.72 L 403.96 231.78 L 402.73 232.24 L 402.56 232.30 L 401.32 232.77 L 401.16 232.84 L 399.93 233.32 L 399.76 233.38 L 398.53 233.87 L 398.37 233.94 L 397.15 234.44 L 396.98 234.51 L 395.76 235.02 L 395.59 235.09 L 394.38 235.61 L 394.21 235.68 L 393.01 236.21 L 392.84 236.28 L 391.64 236.82 L 391.47 236.89 L 390.27 237.44 L 390.11 237.51 L 388.91 238.07 L 388.75 238.15 L 387.55 238.71 L 387.39 238.79 L 386.20 239.36 L 386.04 239.44 L 384.86 240.03 L 384.70 240.11 L 383.52 240.70 L 383.36 240.78 L 382.18 241.39 L 382.02 241.47 L 380.85 242.08 L 380.69 242.17 L 379.53 242.79 L 379.37 242.87 L 378.21 243.50 L 378.05 243.59 L 376.90 244.23 L 399.18 284.47 L 400.26 283.87 Z" fill="#A6CF52" />
<path d="M 555.33 293.77 L 556.25 294.44 L 557.16 295.12 L 558.07 295.81 L 558.97 296.51 L 559.87 297.21 L 560.76 297.92 L 561.64 298.63 L 562.52 299.36 L 563.40 300.09 L 564.27 300.82 L 565.13 301.57 L 565.98 302.32 L 566.84 303.07 L 567.68 303.84 L 568.52 304.61 L 569.35 305.39 L 570.18 306.17 L 571.00 306.96 L 571.81 307.76 L 572.62 308.56 L 573.42 309.37 L 574.22 310.18 L 575.00 311.01 L 575.79 311.83 L 576.56 312.67 L 577.33 313.51 L 578.09 314.35 L 578.85 315.20 L 579.60 316.06 L 580.34 316.93 L 581.08 317.80 L 581.80 318.67 L 582.53 319.55 L 583.24 320.44 L 583.95 321.33 L 584.65 322.23 L 585.34 323.13 L 586.03 324.04 L 586.71 324.95 L 587.38 325.87 L 588.05 326.80 L 588.70 327.73 L 589.35 328.66 L 590.00 329.60 L 590.63 330.55 L 591.26 331.50 L 591.88 332.45 L 592.50 333.41 L 593.10 334.38 L 593.70 335.35 L 594.29 336.32 L 594.87 337.30 L 595.45 338.28 L 596.01 339.27 L 596.57 340.26 L 597.13 341.26 L 597.67 342.26 L 598.21 343.26 L 598.73 344.27 L 599.25 345.28 L 599.77 346.30 L 600.27 347.32 L 600.77 348.35 L 601.25 349.38 L 601.73 350.41 L 602.21 351.45 L 602.67 352.49 L 603.12 353.53 L 603.57 354.58 L 604.01 355.63 L 604.44 356.68 L 604.86 357.74 L 605.28 358.80 L 605.68 359.86 L 606.08 360.93 L 606.47 362.00 L 606.85 363.08 L 607.22 364.15 L 607.59 365.23 L 607.94 366.31 L 608.29 367.40 L 608.63 368.49 L 608.96 369.58 L 609.28 370.67 L 609.59 371.76 L 609.89 372.86 L 610.19 373.96 L 610.48 375.06 L 610.75 376.17 L 611.02 377.27 L 611.28 378.38 L 611.54 379.49 L 611.78 380.61 L 612.01 381.72 L 612.24 382.84 L 612.46 383.95 L 612.66 385.07 L 612.86 386.19 L 613.05 387.32 L 613.23 388.44 L 613.41 389.57 L 613.57 390.69 L 613.73 391.82 L 613.87 392.95 L 614.01 394.08 L 614.14 395.21 L 614.26 396.35 L 614.37 397.48 L 614.47 398.61 L 614.56 399.75 L 614.65 400.89 L 614.72 402.02 L 614.79 403.16 L 614.84 404.30 L 614.89 405.43 L 614.93 406.57 L 614.96 407.71 L 614.98 408.85 L 615.00 409.99 L 615.00 411.13 L 614.99 412.27 L 614.98 413.40 L 614.96 414.54 L 614.92 415.68 L 614.88 416.82 L 614.83 417.96 L 614.77 419.09 L 614.71 420.23 L 614.63 421.37 L 614.54 422.50 L 614.45 423.64 L 614.34 424.77 L 614.23 425.90 L 614.11 427.04 L 613.98 428.17 L 613.84 429.30 L 613.69 430.43 L 613.54 431.56 L 613.37 432.68 L 613.19 433.81 L 613.01 434.93 L 612.82 436.05 L 612.60 437.26 L 612.47 438.07 L 657.73 444.54 L 657.60 445.34 L 657.88 445.39 L 658.11 444.09 L 658.14 443.91 L 658.37 442.61 L 658.40 442.43 L 658.61 441.13 L 658.64 440.95 L 658.84 439.65 L 658.87 439.47 L 659.06 438.17 L 659.08 437.99 L 659.27 436.68 L 659.29 436.50 L 659.46 435.19 L 659.48 435.01 L 659.65 433.70 L 659.67 433.53 L 659.82 432.21 L 659.84 432.04 L 659.98 430.72 L 660.00 430.54 L 660.13 429.23 L 660.14 429.05 L 660.27 427.74 L 660.28 427.56 L 660.39 426.24 L 660.41 426.06 L 660.50 424.75 L 660.52 424.57 L 660.61 423.25 L 660.62 423.07 L 660.70 421.75 L 660.71 421.57 L 660.78 420.25 L 660.78 420.07 L 660.84 418.76 L 660.85 418.57 L 660.90 417.26 L 660.90 417.08 L 660.94 415.76 L 660.95 415.58 L 660.97 414.26 L 660.98 414.08 L 660.99 412.76 L 660.99 412.58 L 661.00 411.26 L 661.00 411.08 L 661.00 409.76 L 660.99 409.58 L 660.98 408.26 L 660.98 408.08 L 660.95 406.76 L 660.95 406.58 L 660.91 405.26 L 660.91 405.08 L 660.86 403.76 L 660.86 403.58 L 660.80 402.26 L 660.79 402.08 L 660.73 400.76 L 660.72 400.58 L 660.64 399.26 L 660.63 399.08 L 660.54 397.77 L 660.53 397.59 L 660.43 396.27 L 660.42 396.09 L 660.31 394.78 L 660.29 394.60 L 660.18 393.28 L 660.16 393.10 L 660.03 391.79 L 660.01 391.61 L 659.87 390.30 L 659.85 390.12 L 659.71 388.81 L 659.68 388.63 L 659.53 387.32 L 659.50 387.14 L 659.33 385.83 L 659.31 385.65 L 659.13 384.34 L 659.11 384.16 L 658.92 382.86 L 658.89 382.68 L 658.69 381.37 L 658.66 381.20 L 658.45 379.89 L 658.42 379.72 L 658.20 378.41 L 658.17 378.24 L 657.94 376.94 L 657.91 376.76 L 657.66 375.46 L 657.63 375.29 L 657.38 373.99 L 657.34 373.81 L 657.08 372.52 L 657.05 372.34 L 656.78 371.05 L 656.74 370.87 L 656.46 369.59 L 656.42 369.41 L 656.12 368.12 L 656.08 367.95 L 655.78 366.66 L 655.74 366.49 L 655.43 365.20 L 655.38 365.03 L 655.06 363.75 L 655.02 363.57 L 654.69 362.30 L 654.64 362.12 L 654.30 360.85 L 654.25 360.67 L 653.90 359.40 L 653.85 359.23 L 653.49 357.96 L 653.44 357.79 L 653.07 356.52 L 653.01 356.35 L 652.63 355.08 L 652.58 354.91 L 652.19 353.65 L 652.13 353.48 L 651.73 352.22 L 651.68 352.05 L 651.26 350.80 L 651.21 350.63 L 650.79 349.38 L 650.73 349.20 L 650.30 347.96 L 650.24 347.79 L 649.79 346.54 L 649.73 346.37 L 649.28 345.13 L 649.22 344.96 L 648.76 343.73 L 648.70 343.56 L 648.23 342.32 L 648.16 342.16 L 647.68 340.93 L 647.62 340.76 L 647.13 339.53 L 647.06 339.37 L 646.56 338.15 L 646.49 337.98 L 645.98 336.76 L 645.91 336.59 L 645.39 335.38 L 645.32 335.21 L 644.79 334.01 L 644.72 333.84 L 644.18 332.64 L 644.11 332.47 L 643.56 331.27 L 643.49 331.11 L 642.93 329.91 L 642.85 329.75 L 642.29 328.55 L 642.21 328.39 L 641.64 327.20 L 641.56 327.04 L 640.97 325.86 L 640.89 325.70 L 640.30 324.52 L 640.22 324.36 L 639.61 323.18 L 639.53 323.02 L 638.92 321.85 L 638.83 321.69 L 638.21 320.53 L 638.13 320.37 L 637.50 319.21 L 637.41 319.05 L 636.77 317.90 L 636.68 317.74 L 636.04 316.59 L 635.95 316.43 L 635.29 315.29 L 635.20 315.13 L 634.53 313.99 L 634.44 313.84 L 633.77 312.71 L 633.67 312.55 L 632.99 311.42 L 632.89 311.27 L 632.20 310.15 L 632.11 309.99 L 631.40 308.87 L 631.31 308.72 L 630.60 307.61 L 630.50 307.46 L 629.78 306.35 L 629.68 306.20 L 628.95 305.10 L 628.85 304.95 L 628.12 303.85 L 628.02 303.71 L 627.27 302.62 L 627.17 302.47 L 626.41 301.38 L 626.31 301.24 L 625.55 300.16 L 625.44 300.01 L 624.67 298.94 L 624.57 298.79 L 623.79 297.73 L 623.68 297.58 L 622.89 296.53 L 622.79 296.38 L 621.99 295.33 L 621.88 295.18 L 621.08 294.14 L 620.97 294.00 L 620.15 292.96 L 620.04 292.81 L 619.22 291.78 L 619.11 291.64 L 618.28 290.61 L 618.17 290.47 L 617.33 289.45 L 617.22 289.31 L 616.37 288.30 L 616.26 288.16 L 615.40 287.15 L 615.29 287.01 L 614.43 286.01 L 614.31 285.88 L 613.44 284.88 L 613.32 284.75 L 612.45 283.76 L 612.33 283.63 L 611.44 282.64 L 611.32 282.51 L 610.43 281.54 L 610.31 281.41 L 609.41 280.44 L 609.29 280.31 L 608.38 279.35 L 608.25 279.22 L 607.34 278.27 L 607.22 278.14 L 606.29 277.19 L 606.17 277.06 L 605.24 276.12 L 605.11 276.00 L 604.18 275.07 L 604.05 274.94 L 603.10 274.02 L 602.97 273.89 L 602.02 272.98 L 601.89 272.85 L 600.94 271.94 L 600.80 271.82 L 599.84 270.92 L 599.71 270.80 L 598.74 269.90 L 598.60 269.78 L 597.62 268.90 L 597.49 268.78 L 596.50 267.90 L 596.37 267.78 L 595.38 266.91 L 595.24 266.79 L 594.24 265.93 L 594.10 265.81 L 593.10 264.96 L 592.96 264.84 L 591.95 264.00 L 591.81 263.88 L 590.79 263.04 L 590.65 262.93 L 589.62 262.10 L 589.48 261.99 L 588.45 261.16 L 588.31 261.05 L 587.27 260.24 L 587.13 260.13 L 586.08 259.32 L 585.94 259.21 L 584.89 258.41 L 584.74 258.31 L 583.68 257.52 L 583.54 257.41 L 582.47 256.63 L 582.33 256.52 L 581.26 255.75 L 554.33 293.05 L 555.33 293.77 Z" fill="#EBCB59" />
<path d="M 612.41 438.29 L 612.19 439.41 L 611.96 440.53 L 611.73 441.64 L 611.48 442.75 L 611.23 443.86 L 610.96 444.97 L 610.69 446.08 L 610.41 447.18 L 610.12 448.28 L 609.83 449.38 L 609.52 450.48 L 609.21 451.58 L 608.88 452.67 L 608.55 453.76 L 608.21 454.84 L 607.86 455.93 L 607.51 457.01 L 607.14 458.09 L 606.77 459.16 L 606.38 460.24 L 605.99 461.31 L 605.59 462.37 L 605.19 463.44 L 604.77 464.50 L 604.35 465.55 L 603.91 466.61 L 603.47 467.66 L 603.02 468.70 L 602.57 469.75 L 602.10 470.78 L 601.63 471.82 L 601.15 472.85 L 600.66 473.88 L 600.16 474.90 L 599.65 475.92 L 599.14 476.94 L 598.62 477.95 L 598.09 478.96 L 597.55 479.97 L 597.00 480.97 L 596.45 481.96 L 595.89 482.95 L 595.32 483.94 L 594.74 484.92 L 594.16 485.90 L 593.57 486.87 L 592.97 487.84 L 592.36 488.80 L 591.74 489.76 L 591.12 490.71 L 590.49 491.66 L 589.86 492.61 L 589.21 493.55 L 588.56 494.48 L 587.90 495.41 L 587.23 496.33 L 586.56 497.25 L 585.88 498.16 L 585.19 499.07 L 584.49 499.97 L 583.79 500.87 L 583.08 501.76 L 582.37 502.64 L 581.64 503.52 L 580.91 504.40 L 580.18 505.27 L 579.43 506.13 L 578.68 506.98 L 577.93 507.84 L 577.16 508.68 L 576.39 509.52 L 575.61 510.35 L 574.83 511.18 L 574.04 512.00 L 573.24 512.81 L 572.44 513.62 L 571.63 514.42 L 570.82 515.22 L 569.99 516.00 L 569.17 516.79 L 568.33 517.56 L 567.49 518.33 L 566.65 519.09 L 565.80 519.85 L 564.94 520.60 L 564.07 521.34 L 563.20 522.08 L 562.33 522.80 L 561.45 523.53 L 560.56 524.24 L 559.67 524.95 L 558.77 525.65 L 557.87 526.34 L 556.96 527.03 L 556.05 527.71 L 555.13 528.38 L 554.20 529.05 L 553.27 529.70 L 552.34 530.35 L 551.40 531.00 L 550.45 531.63 L 549.50 532.26 L 548.55 532.88 L 547.59 533.50 L 546.62 534.10 L 545.65 534.70 L 544.68 535.29 L 543.70 535.87 L 542.72 536.45 L 541.73 537.01 L 540.74 537.57 L 539.74 538.13 L 538.74 538.67 L 537.74 539.21 L 536.73 539.73 L 535.72 540.25 L 534.70 540.77 L 533.68 541.27 L 532.65 541.77 L 531.62 542.25 L 530.59 542.73 L 529.55 543.21 L 528.51 543.67 L 527.47 544.12 L 526.42 544.57 L 525.37 545.01 L 524.32 545.44 L 523.26 545.86 L 522.20 546.28 L 521.14 546.68 L 520.07 547.08 L 519.00 547.47 L 517.92 547.85 L 516.85 548.22 L 515.77 548.59 L 514.69 548.94 L 513.60 549.29 L 512.51 549.63 L 511.42 549.96 L 510.33 550.28 L 509.24 550.59 L 508.14 550.89 L 507.04 551.19 L 505.94 551.48 L 504.83 551.75 L 503.73 552.02 L 502.62 552.28 L 501.51 552.54 L 500.39 552.78 L 499.28 553.01 L 498.16 553.24 L 497.05 553.46 L 495.93 553.66 L 494.81 553.86 L 493.68 554.05 L 492.56 554.23 L 491.43 554.41 L 490.31 554.57 L 489.18 554.73 L 488.05 554.87 L 486.92 555.01 L 485.79 555.14 L 484.65 555.26 L 483.52 555.37 L 482.39 555.47 L 481.25 555.56 L 480.11 555.65 L 478.98 555.72 L 477.84 555.79 L 476.70 555.84 L 475.57 555.89 L 474.43 555.93 L 473.29 555.96 L 472.15 555.98 L 471.01 556.00 L 469.87 556.00 L 468.73 555.99 L 467.60 555.98 L 466.46 555.96 L 465.32 555.92 L 464.18 555.88 L 463.04 555.83 L 461.91 555.77 L 460.77 555.71 L 459.63 555.63 L 458.50 555.54 L 457.36 555.45 L 456.23 555.34 L 455.10 555.23 L 453.96 555.11 L 452.83 554.98 L 451.70 554.84 L 450.57 554.69 L 449.44 554.54 L 448.32 554.37 L 447.19 554.19 L 446.07 554.01 L 444.95 553.82 L 443.82 553.62 L 442.71 553.41 L 441.59 553.19 L 440.47 552.96 L 439.36 552.73 L 438.25 552.48 L 437.14 552.23 L 436.03 551.96 L 434.92 551.69 L 433.82 551.41 L 432.72 551.12 L 431.62 550.83 L 430.52 550.52 L 429.42 550.21 L 428.33 549.88 L 427.24 549.55 L 426.16 549.21 L 425.07 548.86 L 423.99 548.51 L 422.91 548.14 L 421.84 547.77 L 420.76 547.38 L 419.69 546.99 L 418.63 546.59 L 417.56 546.19 L 416.50 545.77 L 415.45 545.35 L 414.39 544.91 L 413.34 544.47 L 412.30 544.02 L 411.25 543.57 L 410.22 543.10 L 409.18 542.63 L 408.15 542.15 L 407.12 541.66 L 406.10 541.16 L 405.08 540.65 L 404.06 540.14 L 403.05 539.62 L 402.04 539.09 L 401.03 538.55 L 400.03 538.00 L 399.04 537.45 L 398.05 536.89 L 397.06 536.32 L 396.08 535.74 L 395.10 535.16 L 394.13 534.57 L 393.16 533.97 L 392.20 533.36 L 391.24 532.74 L 390.29 532.12 L 389.34 531.49 L 388.39 530.86 L 387.45 530.21 L 386.52 529.56 L 385.59 528.90 L 384.67 528.23 L 383.75 527.56 L 382.84 526.88 L 381.93 526.19 L 381.03 525.49 L 380.13 524.79 L 379.24 524.08 L 378.36 523.37 L 377.48 522.64 L 376.60 521.91 L 375.73 521.18 L 374.87 520.43 L 374.02 519.68 L 373.16 518.93 L 372.32 518.16 L 371.48 517.39 L 370.65 516.61 L 369.82 515.83 L 369.00 515.04 L 368.19 514.24 L 367.38 513.44 L 366.58 512.63 L 365.78 511.82 L 365.00 510.99 L 364.21 510.17 L 363.44 509.33 L 362.67 508.49 L 361.91 507.65 L 361.15 506.80 L 360.40 505.94 L 359.66 505.07 L 358.87 504.14 L 323.74 533.84 L 324.60 534.85 L 324.71 534.99 L 325.57 535.99 L 325.69 536.12 L 326.56 537.12 L 326.68 537.25 L 327.55 538.24 L 327.67 538.37 L 328.56 539.36 L 328.68 539.49 L 329.57 540.46 L 329.69 540.59 L 330.59 541.56 L 330.71 541.69 L 331.62 542.65 L 331.75 542.78 L 332.66 543.73 L 332.78 543.86 L 333.71 544.81 L 333.83 544.94 L 334.76 545.88 L 334.89 546.00 L 335.82 546.93 L 335.95 547.06 L 336.90 547.98 L 337.03 548.11 L 337.98 549.02 L 338.11 549.15 L 339.06 550.06 L 339.20 550.18 L 340.16 551.08 L 340.29 551.20 L 341.26 552.10 L 341.40 552.22 L 342.38 553.10 L 342.51 553.22 L 343.50 554.10 L 343.63 554.22 L 344.62 555.09 L 344.76 555.21 L 345.76 556.07 L 345.90 556.19 L 346.90 557.04 L 347.04 557.16 L 348.05 558.00 L 348.19 558.12 L 349.21 558.96 L 349.35 559.07 L 350.38 559.90 L 350.52 560.01 L 351.55 560.84 L 351.69 560.95 L 352.73 561.76 L 352.87 561.87 L 353.92 562.68 L 354.06 562.79 L 355.11 563.59 L 355.26 563.69 L 356.32 564.48 L 356.46 564.59 L 357.53 565.37 L 357.67 565.48 L 358.74 566.25 L 358.89 566.35 L 359.96 567.12 L 360.11 567.22 L 361.19 567.98 L 361.34 568.08 L 362.43 568.83 L 362.58 568.93 L 363.67 569.67 L 363.82 569.77 L 364.92 570.50 L 365.07 570.60 L 366.18 571.32 L 366.33 571.42 L 367.44 572.13 L 367.59 572.23 L 368.71 572.93 L 368.86 573.02 L 369.98 573.72 L 370.14 573.81 L 371.26 574.50 L 371.42 574.59 L 372.55 575.27 L 372.71 575.36 L 373.85 576.03 L 374.00 576.12 L 375.14 576.78 L 375.30 576.87 L 376.45 577.52 L 376.61 577.61 L 377.76 578.25 L 377.92 578.34 L 379.08 578.97 L 379.24 579.06 L 380.40 579.68 L 380.56 579.76 L 381.73 580.38 L 381.89 580.46 L 383.06 581.07 L 383.22 581.15 L 384.40 581.74 L 384.56 581.82 L 385.74 582.41 L 385.90 582.49 L 387.09 583.07 L 387.25 583.14 L 388.44 583.71 L 388.61 583.79 L 389.80 584.35 L 389.97 584.42 L 391.17 584.97 L 391.33 585.05 L 392.54 585.59 L 392.70 585.66 L 393.91 586.19 L 394.07 586.26 L 395.29 586.78 L 395.45 586.85 L 396.67 587.36 L 396.84 587.43 L 398.06 587.93 L 398.22 588.00 L 399.45 588.49 L 399.62 588.56 L 400.85 589.04 L 401.01 589.11 L 402.25 589.58 L 402.41 589.64 L 403.65 590.11 L 403.82 590.17 L 405.06 590.62 L 405.23 590.68 L 406.47 591.13 L 406.64 591.19 L 407.89 591.62 L 408.06 591.68 L 409.31 592.10 L 409.48 592.16 L 410.73 592.57 L 410.91 592.63 L 412.16 593.03 L 412.33 593.09 L 413.59 593.48 L 413.77 593.53 L 415.03 593.92 L 415.20 593.97 L 416.47 594.34 L 416.64 594.39 L 417.91 594.76 L 418.08 594.81 L 419.35 595.16 L 419.53 595.21 L 420.80 595.55 L 420.97 595.60 L 422.25 595.94 L 422.43 595.98 L 423.71 596.30 L 423.88 596.35 L 425.16 596.66 L 425.34 596.70 L 426.62 597.01 L 426.80 597.05 L 428.08 597.34 L 428.26 597.38 L 429.55 597.67 L 429.73 597.71 L 431.02 597.98 L 431.19 598.02 L 432.49 598.28 L 432.66 598.31 L 433.96 598.57 L 434.14 598.60 L 435.43 598.85 L 435.61 598.88 L 436.91 599.11 L 437.09 599.14 L 438.39 599.37 L 438.57 599.40 L 439.87 599.61 L 440.05 599.64 L 441.35 599.84 L 441.53 599.87 L 442.83 600.06 L 443.01 600.08 L 444.32 600.27 L 444.50 600.29 L 445.81 600.46 L 445.99 600.48 L 447.30 600.65 L 447.47 600.67 L 448.79 600.82 L 448.96 600.84 L 450.28 600.98 L 450.46 601.00 L 451.77 601.13 L 451.95 601.14 L 453.26 601.27 L 453.44 601.28 L 454.76 601.39 L 454.94 601.41 L 456.25 601.50 L 456.43 601.52 L 457.75 601.61 L 457.93 601.62 L 459.25 601.70 L 459.43 601.71 L 460.75 601.78 L 460.93 601.78 L 462.24 601.84 L 462.43 601.85 L 463.74 601.90 L 463.92 601.90 L 465.24 601.94 L 465.42 601.95 L 466.74 601.97 L 466.92 601.98 L 468.24 601.99 L 468.42 601.99 L 469.74 602.00 L 469.92 602.00 L 471.24 602.00 L 471.42 601.99 L 472.74 601.98 L 472.92 601.98 L 474.24 601.95 L 474.42 601.95 L 475.74 601.91 L 475.92 601.91 L 477.24 601.86 L 477.42 601.86 L 478.74 601.80 L 478.92 601.79 L 480.24 601.73 L 480.42 601.72 L 481.74 601.64 L 481.92 601.63 L 483.23 601.54 L 483.41 601.53 L 484.73 601.43 L 484.91 601.42 L 486.22 601.31 L 486.40 601.29 L 487.72 601.18 L 487.90 601.16 L 489.21 601.03 L 489.39 601.01 L 490.70 600.87 L 490.88 600.85 L 492.19 600.71 L 492.37 600.68 L 493.68 600.53 L 493.86 600.50 L 495.17 600.33 L 495.35 600.31 L 496.66 600.13 L 496.84 600.11 L 498.14 599.92 L 498.32 599.89 L 499.63 599.69 L 499.80 599.66 L 501.11 599.45 L 501.28 599.42 L 502.59 599.20 L 502.76 599.17 L 504.06 598.94 L 504.24 598.91 L 505.54 598.66 L 505.71 598.63 L 507.01 598.38 L 507.19 598.34 L 508.48 598.08 L 508.66 598.05 L 509.95 597.78 L 510.13 597.74 L 511.41 597.46 L 511.59 597.42 L 512.88 597.12 L 513.05 597.08 L 514.34 596.78 L 514.51 596.74 L 515.80 596.43 L 515.97 596.38 L 517.25 596.06 L 517.43 596.02 L 518.70 595.69 L 518.88 595.64 L 520.15 595.30 L 520.33 595.25 L 521.60 594.90 L 521.77 594.85 L 523.04 594.49 L 523.21 594.44 L 524.48 594.07 L 524.65 594.01 L 525.92 593.63 L 526.09 593.58 L 527.35 593.19 L 527.52 593.13 L 528.78 592.73 L 528.95 592.68 L 530.20 592.26 L 530.37 592.21 L 531.62 591.79 L 531.80 591.73 L 533.04 591.30 L 533.21 591.24 L 534.46 590.79 L 534.63 590.73 L 535.87 590.28 L 536.04 590.22 L 537.27 589.76 L 537.44 589.70 L 538.68 589.23 L 538.84 589.16 L 540.07 588.68 L 540.24 588.62 L 541.47 588.13 L 541.63 588.06 L 542.85 587.56 L 543.02 587.49 L 544.24 586.98 L 544.41 586.91 L 545.62 586.39 L 545.79 586.32 L 546.99 585.79 L 547.16 585.72 L 548.36 585.18 L 548.53 585.11 L 549.73 584.56 L 549.89 584.49 L 551.09 583.93 L 551.25 583.85 L 552.45 583.29 L 552.61 583.21 L 553.80 582.64 L 553.96 582.56 L 555.14 581.97 L 555.30 581.89 L 556.48 581.30 L 556.64 581.22 L 557.82 580.61 L 557.98 580.53 L 559.15 579.92 L 559.31 579.83 L 560.47 579.21 L 560.63 579.13 L 561.79 578.50 L 561.95 578.41 L 563.10 577.77 L 563.26 577.68 L 564.41 577.04 L 564.57 576.95 L 565.71 576.29 L 565.87 576.20 L 567.01 575.53 L 567.16 575.44 L 568.29 574.77 L 568.45 574.67 L 569.58 573.99 L 569.73 573.89 L 570.85 573.20 L 571.01 573.11 L 572.13 572.40 L 572.28 572.31 L 573.39 571.60 L 573.54 571.50 L 574.65 570.78 L 574.80 570.68 L 575.90 569.95 L 576.05 569.85 L 577.15 569.12 L 577.29 569.02 L 578.38 568.27 L 578.53 568.17 L 579.62 567.41 L 579.76 567.31 L 580.84 566.55 L 580.99 566.44 L 582.06 565.67 L 582.21 565.57 L 583.27 564.79 L 583.42 564.68 L 584.47 563.89 L 584.62 563.79 L 585.67 562.99 L 585.82 562.88 L 586.86 562.08 L 587.00 561.97 L 588.04 561.15 L 588.19 561.04 L 589.22 560.22 L 589.36 560.11 L 590.39 559.28 L 590.53 559.17 L 591.55 558.33 L 591.69 558.22 L 592.70 557.37 L 592.84 557.26 L 593.85 556.40 L 593.99 556.29 L 594.99 555.43 L 595.12 555.31 L 596.12 554.44 L 596.25 554.32 L 597.24 553.45 L 597.37 553.33 L 598.36 552.44 L 598.49 552.32 L 599.46 551.43 L 599.59 551.31 L 600.56 550.41 L 600.69 550.29 L 601.65 549.38 L 601.78 549.25 L 602.73 548.34 L 602.86 548.22 L 603.81 547.29 L 603.94 547.17 L 604.88 546.24 L 605.00 546.11 L 605.93 545.18 L 606.06 545.05 L 606.98 544.10 L 607.11 543.97 L 608.02 543.02 L 608.15 542.89 L 609.06 541.94 L 609.18 541.80 L 610.08 540.84 L 610.20 540.71 L 611.10 539.74 L 611.22 539.60 L 612.10 538.62 L 612.22 538.49 L 613.10 537.50 L 613.22 537.37 L 614.09 536.38 L 614.21 536.24 L 615.07 535.24 L 615.19 535.10 L 616.04 534.10 L 616.16 533.96 L 617.00 532.95 L 617.12 532.81 L 617.96 531.79 L 618.07 531.65 L 618.90 530.62 L 619.01 530.48 L 619.84 529.45 L 619.95 529.31 L 620.76 528.27 L 620.87 528.13 L 621.68 527.08 L 621.79 526.94 L 622.59 525.89 L 622.69 525.74 L 623.48 524.68 L 623.59 524.54 L 624.37 523.47 L 624.48 523.33 L 625.25 522.26 L 625.35 522.11 L 626.12 521.04 L 626.22 520.89 L 626.98 519.81 L 627.08 519.66 L 627.83 518.57 L 627.93 518.42 L 628.67 517.33 L 628.77 517.18 L 629.50 516.08 L 629.60 515.93 L 630.32 514.82 L 630.42 514.67 L 631.13 513.56 L 631.23 513.41 L 631.93 512.29 L 632.02 512.14 L 632.72 511.02 L 632.81 510.86 L 633.50 509.74 L 633.59 509.58 L 634.27 508.45 L 634.36 508.29 L 635.03 507.15 L 635.12 507.00 L 635.78 505.86 L 635.87 505.70 L 636.52 504.55 L 636.61 504.39 L 637.25 503.24 L 637.34 503.08 L 637.97 501.92 L 638.06 501.76 L 638.68 500.60 L 638.76 500.44 L 639.38 499.27 L 639.46 499.11 L 640.07 497.94 L 640.15 497.78 L 640.74 496.60 L 640.82 496.44 L 641.41 495.26 L 641.49 495.10 L 642.07 493.91 L 642.14 493.75 L 642.71 492.56 L 642.79 492.39 L 643.35 491.20 L 643.42 491.03 L 643.97 489.83 L 644.05 489.67 L 644.59 488.46 L 644.66 488.30 L 645.19 487.09 L 645.26 486.93 L 645.78 485.71 L 645.85 485.55 L 646.36 484.33 L 646.43 484.16 L 646.93 482.94 L 647.00 482.78 L 647.49 481.55 L 647.56 481.38 L 648.04 480.15 L 648.11 479.99 L 648.58 478.75 L 648.64 478.59 L 649.11 477.35 L 649.17 477.18 L 649.62 475.94 L 649.68 475.77 L 650.13 474.53 L 650.19 474.36 L 650.62 473.11 L 650.68 472.94 L 651.10 471.69 L 651.16 471.52 L 651.57 470.27 L 651.63 470.09 L 652.03 468.84 L 652.09 468.67 L 652.48 467.41 L 652.53 467.23 L 652.92 465.97 L 652.97 465.80 L 653.34 464.53 L 653.39 464.36 L 653.76 463.09 L 653.81 462.92 L 654.16 461.65 L 654.21 461.47 L 654.55 460.20 L 654.60 460.03 L 654.94 458.75 L 654.98 458.57 L 655.30 457.29 L 655.35 457.12 L 655.66 455.84 L 655.70 455.66 L 656.01 454.38 L 656.05 454.20 L 656.34 452.92 L 656.38 452.74 L 656.67 451.45 L 656.71 451.27 L 656.98 449.98 L 657.02 449.81 L 657.28 448.51 L 657.31 448.34 L 657.57 447.04 L 657.60 446.86 L 657.85 445.57 L 612.63 437.09 L 612.41 438.29 Z" fill="#5A8EF8" />
</g>
  <g transform="translate(384.12 231.29) scale(0.10742188 -0.10742188)">
    <path d="M620.0 -442C921.0 -442 1143.0 -302 1143.0 -3V1118H888.0V933H874.0C834.0 1012 749.0 1132 551.0 1132C293.0 1132 89.0 929 89.0 562C89.0 198 292.0 17 549.0 17C742.0 17 824.0 119 864.0 200H886.0V-11C886.0 -171 780.0 -244 619.0 -244C456.0 -244 387.0 -167 352.0 -104L132.0 -183C188.0 -331 351.0 -442 620.0 -442ZM622.0 222C448.0 222 355.0 358 355.0 564C355.0 767 446.0 918 622.0 918C794.0 918 887.0 776 887.0 564C887.0 350 792.0 222 622.0 222ZM1693.7636363636364 -23C1867.7636363636364 -23 1973.7636363636364 58 2022.7636363636364 154H2032.7636363636364V0H2281.7636363636366V747C2281.7636363636366 1045 2035.7636363636364 1132 1825.7636363636364 1132C1601.7636363636364 1132 1417.7636363636364 1037 1351.7636363636364 840L1592.7636363636364 791C1619.7636363636364 865 1696.7636363636364 932 1826.7636363636364 932C1953.7636363636364 932 2021.7636363636364 868 2021.7636363636364 759V754C2021.7636363636364 677 1939.7636363636364 674 1745.7636363636364 653C1529.7636363636364 630 1319.7636363636364 566 1319.7636363636364 314C1319.7636363636364 94 1480.7636363636364 -23 1693.7636363636364 -23ZM1760.7636363636364 170C1650.7636363636364 170 1571.7636363636364 220 1571.7636363636364 317C1571.7636363636364 419 1659.7636363636364 462 1776.7636363636364 478C1843.7636363636364 487 1988.7636363636364 505 2023.7636363636364 533V401C2023.7636363636364 277 1920.7636363636364 170 1760.7636363636364 170ZM2780.5272727272727 1490H2520.5272727272727V0H2780.5272727272727ZM3279.290909090909 1490H3019.290909090909V0H3279.290909090909ZM4012.0545454545454 -23C4261.054545454545 -23 4435.054545454545 96 4489.054545454545 277L4250.054545454545 326C4215.054545454545 231 4129.054545454545 181 4015.0545454545454 181C3848.0545454545454 181 3735.0545454545454 287 3728.0545454545454 486H4506.054545454545V568C4506.054545454545 960 4268.054545454545 1132 3995.0545454545454 1132C3675.0545454545454 1132 3469.0545454545454 896 3469.0545454545454 552C3469.0545454545454 202 3675.0545454545454 -23 4012.0545454545454 -23ZM3729.0545454545454 663C3741.0545454545454 812 3837.0545454545454 928 3996.0545454545454 928C4151.054545454545 928 4238.054545454545 823 4253.054545454545 663ZM4691.818181818182 0H4951.818181818182V658C4951.818181818182 800 5058.818181818182 900 5203.818181818182 900C5249.818181818182 900 5304.818181818182 893 5326.818181818182 887V1126C5301.818181818182 1130 5260.818181818182 1133 5231.818181818182 1133C5103.818181818182 1133 4995.818181818182 1060 4955.818181818182 931H4943.818181818182V1118H4691.818181818182ZM5456.581818181819 -399C5491.581818181819 -413 5556.581818181819 -426 5630.581818181819 -426C5832.581818181819 -426 5947.581818181819 -323 6015.581818181819 -144L6495.581818181819 1118H6220.581818181819L6009.581818181819 510C5976.581818181819 414 5951.581818181819 317 5926.581818181819 219C5904.581818181819 317 5882.581818181819 413 5850.581818181819 510L5646.581818181819 1118H5368.581818181819L5790.581818181819 -4L5774.581818181819 -75C5747.581818181819 -203 5665.581818181819 -235 5548.581818181819 -204L5517.581818181819 -196Z" fill="#FFFFFF" />
  </g>
</g></svg>